<svg xmlns="http://www.w3.org/2000/svg" width="21.111" height="21.106" viewBox="0 0 21.111 21.106">
  <path id="instagram" d="M10.553,7.379a5.411,5.411,0,1,0,5.411,5.411A5.4,5.4,0,0,0,10.553,7.379Zm0,8.929a3.518,3.518,0,1,1,3.518-3.518,3.524,3.524,0,0,1-3.518,3.518Zm6.895-9.151A1.262,1.262,0,1,1,16.185,5.9,1.259,1.259,0,0,1,17.447,7.158Zm3.584,1.281a6.246,6.246,0,0,0-1.7-4.422,6.287,6.287,0,0,0-4.422-1.7c-1.743-.1-6.966-.1-8.708,0a6.278,6.278,0,0,0-4.422,1.7,6.267,6.267,0,0,0-1.7,4.422c-.1,1.743-.1,6.966,0,8.708a6.246,6.246,0,0,0,1.7,4.422A6.3,6.3,0,0,0,6.2,23.27c1.743.1,6.966.1,8.708,0a6.246,6.246,0,0,0,4.422-1.7,6.287,6.287,0,0,0,1.7-4.422c.1-1.743.1-6.961,0-8.7ZM18.78,19.012a3.562,3.562,0,0,1-2.006,2.006c-1.389.551-4.686.424-6.221.424s-4.837.122-6.221-.424a3.562,3.562,0,0,1-2.006-2.006c-.551-1.389-.424-4.686-.424-6.221s-.122-4.837.424-6.221A3.562,3.562,0,0,1,4.331,4.563c1.389-.551,4.686-.424,6.221-.424s4.837-.122,6.221.424A3.562,3.562,0,0,1,18.78,6.569c.551,1.389.424,4.686.424,6.221S19.331,17.628,18.78,19.012Z" transform="translate(0.005 -2.238)" fill="#4a3bda"/>
</svg>
