<svg id="setting" xmlns="http://www.w3.org/2000/svg" width="22.585" height="23.509" viewBox="0 0 22.585 23.509">
  <path id="Fill_525" data-name="Fill 525" d="M11.294,23.509a11.517,11.517,0,0,1-2.7-.319.977.977,0,0,1-.743-.952V20.455a9.473,9.473,0,0,1-2.369-1.377l-1.552.893a.975.975,0,0,1-1.2-.179A11.626,11.626,0,0,1,1.165,17.7a.717.717,0,0,1-.068-.12l-.142-.24A11.706,11.706,0,0,1,.04,15.117a.975.975,0,0,1,.454-1.123L2.041,13.1a9.861,9.861,0,0,1-.1-1.349,9.225,9.225,0,0,1,.107-1.4L.5,9.448a.984.984,0,0,1-.445-1.13A11.763,11.763,0,0,1,2.779,3.661a.984.984,0,0,1,.709-.3.972.972,0,0,1,.491.134l1.551.9A9.172,9.172,0,0,1,7.85,3.051V1.27A.977.977,0,0,1,8.593.318a11.613,11.613,0,0,1,5.4,0,.977.977,0,0,1,.749.952V3.052A9.4,9.4,0,0,1,17.1,4.43l1.551-.893a.981.981,0,0,1,1.2.178,11.664,11.664,0,0,1,1.566,2.1l0,.007c.027.043.055.088.078.133a11.226,11.226,0,0,1,1.038,2.435.979.979,0,0,1-.45,1.125l-1.552.892a8.85,8.85,0,0,1-.01,2.75l1.546.9a.975.975,0,0,1,.446,1.129,11.015,11.015,0,0,1-.974,2.285c-.062.111-.136.242-.215.37a11.782,11.782,0,0,1-1.527,2,.979.979,0,0,1-1.2.171l-1.546-.9a9.3,9.3,0,0,1-2.32,1.343v1.78a.977.977,0,0,1-.749.952A11.43,11.43,0,0,1,11.294,23.509ZM5.6,16.9a.985.985,0,0,1,.668.263,7.377,7.377,0,0,0,2.848,1.661.989.989,0,0,1,.695.936v1.671a9.7,9.7,0,0,0,2.975,0V19.763a.975.975,0,0,1,.69-.936,7.342,7.342,0,0,0,2.819-1.63.967.967,0,0,1,.661-.259.983.983,0,0,1,.493.133l1.449.847a9.375,9.375,0,0,0,.768-1.086l.015-.026c.056-.1.113-.2.176-.3a9.755,9.755,0,0,0,.548-1.158L18.948,14.5a.993.993,0,0,1-.46-1.068,7.429,7.429,0,0,0,.2-1.678,7.285,7.285,0,0,0-.191-1.635.98.98,0,0,1,.47-1.065l1.453-.837a9.089,9.089,0,0,0-.607-1.279s-.008-.014-.014-.024a.272.272,0,0,0-.016-.028l-.012-.021-.027-.046a9.682,9.682,0,0,0-.813-1.182l-1.454.837a.977.977,0,0,1-1.155-.132A7.433,7.433,0,0,0,13.472,4.68a.975.975,0,0,1-.69-.937V2.073a9.7,9.7,0,0,0-2.975,0v1.67a.977.977,0,0,1-.695.937A7.277,7.277,0,0,0,6.3,6.31a.985.985,0,0,1-1.16.126L3.69,5.589a9.9,9.9,0,0,0-.763,1.086,9,9,0,0,0-.739,1.486l1.448.848a.971.971,0,0,1,.46,1.067,7.414,7.414,0,0,0-.2,1.677,7.59,7.59,0,0,0,.185,1.636.976.976,0,0,1-.464,1.065l-1.459.837a10.942,10.942,0,0,0,.514,1.114l.142.249,0,.009.005.009a.142.142,0,0,1,.01.017,10.087,10.087,0,0,0,.812,1.182l1.459-.837A.976.976,0,0,1,5.6,16.9Z" fill="#493ad7"/>
  <path id="Fill_526" data-name="Fill 526" d="M3.9,7.8a3.9,3.9,0,1,1,3.9-3.9A3.9,3.9,0,0,1,3.9,7.8Zm0-6.326A2.429,2.429,0,1,0,6.323,3.9,2.431,2.431,0,0,0,3.9,1.47Z" transform="translate(7.399 7.856)" fill="#493ad7"/>
</svg>
